<svg width="227" height="40" viewBox="0 0 227 40" fill="none" xmlns="http://www.w3.org/2000/svg">
<path fill-rule="evenodd" clip-rule="evenodd" d="M0 2C0 0.895431 0.89543 0 2 0H225C226.105 0 227 0.895431 227 2V38C227 39.1046 226.105 40 225 40H2C0.895432 40 0 39.1046 0 38V2Z" fill="#3B3B3B"/>
<path d="M206.418 16L205 17.3458L212 24L219 17.3458L217.583 16L212 21.3042L206.418 16Z" fill="white"/>
<path fill-rule="evenodd" clip-rule="evenodd" d="M24.3374 12.1659C24.3161 12.1635 24.2948 12.1608 24.2735 12.1581C24.2078 12.1498 24.142 12.1415 24.0752 12.1415C24.0614 12.1415 24.0477 12.1433 24.0341 12.1452C24.0222 12.1468 24.0105 12.1484 23.9986 12.1488C23.9772 12.1484 23.956 12.1468 23.9347 12.1452C23.9101 12.1433 23.8856 12.1415 23.8608 12.1415C19.527 12.1415 16.0011 15.6677 16.0011 20.0011C16.0011 24.3352 19.527 27.8608 23.8608 27.8608C23.8857 27.8608 23.9104 27.859 23.935 27.8572C23.9561 27.8557 23.9772 27.8541 23.9983 27.8538C24.0103 27.8542 24.0222 27.8557 24.034 27.8572C24.0477 27.859 24.0614 27.8608 24.0752 27.8608C24.1455 27.8608 24.2147 27.8519 24.2838 27.8431L24.3151 27.8391L24.3374 27.8364C28.4491 27.5882 31.7204 24.1743 31.7204 20.0011C31.7204 15.8279 28.4491 12.4143 24.3374 12.1659ZM21.5079 13.5439C20.7119 14.4629 20.0651 15.7825 19.71 17.3409C18.6058 17.2211 17.9394 17.0815 17.6707 17.017C18.4511 15.4056 19.8269 14.1603 21.5079 13.5439ZM17.2988 17.9324C17.0925 18.5853 16.9802 19.2803 16.9802 20.0011C16.9814 20.848 17.14 21.6872 17.4479 22.4761C17.7625 22.4 18.4637 22.2543 19.602 22.1308C19.4813 21.4546 19.4103 20.743 19.4103 20.0011C19.4109 19.4344 19.4509 18.8685 19.5301 18.3074C18.2032 18.16 17.4863 17.9829 17.2988 17.9324ZM17.8757 23.3833C18.2316 23.3075 18.8693 23.1927 19.8119 23.0942C20.1827 24.4663 20.786 25.6258 21.5085 26.459C19.9713 25.8965 18.6837 24.8066 17.8751 23.3833H17.8757ZM20.7077 23.0103C21.216 24.9791 22.4561 26.4396 23.2983 26.7921V22.9072C22.4561 22.9173 21.4386 22.9561 20.7077 23.0103ZM23.2983 21.9287C22.4561 21.9394 21.31 21.9826 20.5286 22.0432C20.4211 21.3948 20.3905 20.7088 20.3905 20.0011C20.3905 19.451 20.4011 18.9154 20.4677 18.398C21.2612 18.4609 22.4561 18.5061 23.2983 18.5173V21.9284V21.9287ZM20.6024 17.4279C21.3552 17.4855 22.4561 17.5281 23.2983 17.5385V17.5383V13.2104C22.4561 13.5888 21.0726 15.2399 20.6024 17.4279ZM30.0255 16.9631C29.872 17.0103 29.25 17.1837 28.0197 17.3294C27.742 15.8529 27.241 14.5948 26.5875 13.6865C28.0856 14.3357 29.3039 15.5046 30.0255 16.9628V16.9631ZM27.1121 17.4265C26.651 15.2112 25.2632 13.5453 24.4211 13.1958V17.5388C25.2632 17.5284 26.3714 17.4855 27.1121 17.4265ZM24.4211 18.5173C25.2632 18.5064 26.4435 18.4601 27.2272 18.395C27.2918 18.9131 27.3081 19.4495 27.3081 20.0011C27.3081 20.7096 27.2828 21.3968 27.1784 22.046C26.4067 21.9837 25.2632 21.9388 24.4211 21.9287V18.5173ZM24.4211 22.9072V26.8067V26.807C25.2632 26.4808 26.51 25.0077 27.0097 23.0125C26.2883 22.9569 25.2632 22.9173 24.4211 22.9072ZM26.5875 26.3164C27.1764 25.4978 27.6455 24.3992 27.9349 23.1088C28.9027 23.2202 29.5124 23.3499 29.8198 23.4274C29.0797 24.7118 27.9466 25.7245 26.5875 26.3164ZM28.1679 18.2967C28.3156 19.5757 28.2957 20.8685 28.1089 22.1423L28.1092 22.142C29.3039 22.2824 29.9834 22.4514 30.2538 22.5303C30.5653 21.7465 30.7422 20.8946 30.7422 20.0011C30.7418 19.118 30.5702 18.2433 30.2369 17.4254L30.395 17.8717C30.3506 17.8874 29.6808 18.1151 28.1679 18.2967Z" fill="white"/>
<path d="M54.9443 23.0034V24H50.0503V23.0034H54.9443ZM50.2979 14.7578V24H49.0728V14.7578H50.2979ZM54.2969 18.7314V19.728H50.0503V18.7314H54.2969ZM54.8809 14.7578V15.7607H50.0503V14.7578H54.8809ZM57.458 18.5981V24H56.2837V17.1318H57.3945L57.458 18.5981ZM57.1787 20.3057L56.6899 20.2866C56.6942 19.8169 56.764 19.3831 56.8994 18.9854C57.0348 18.5833 57.2253 18.2342 57.4707 17.938C57.7161 17.6418 58.0081 17.4132 58.3467 17.2524C58.6895 17.0874 59.0682 17.0049 59.4829 17.0049C59.8215 17.0049 60.1261 17.0514 60.397 17.1445C60.6678 17.2334 60.8984 17.3773 61.0889 17.5762C61.2835 17.7751 61.4316 18.0332 61.5332 18.3506C61.6348 18.6637 61.6855 19.0467 61.6855 19.4995V24H60.5049V19.4868C60.5049 19.1271 60.452 18.8394 60.3462 18.6235C60.2404 18.4035 60.0859 18.2448 59.8828 18.1475C59.6797 18.0459 59.43 17.9951 59.1338 17.9951C58.8418 17.9951 58.5752 18.0565 58.334 18.1792C58.097 18.3019 57.8918 18.4712 57.7183 18.687C57.549 18.9028 57.4157 19.1504 57.3184 19.4297C57.2253 19.7048 57.1787 19.9967 57.1787 20.3057ZM67.9189 17.1318H68.9854V23.854C68.9854 24.4591 68.8626 24.9754 68.6172 25.4028C68.3717 25.8302 68.029 26.154 67.5889 26.374C67.153 26.5983 66.6494 26.7104 66.0781 26.7104C65.8411 26.7104 65.5618 26.6724 65.2402 26.5962C64.9229 26.5243 64.6097 26.3994 64.3008 26.2217C63.9961 26.0482 63.7401 25.8133 63.5327 25.5171L64.1484 24.8188C64.4362 25.1659 64.7367 25.4071 65.0498 25.5425C65.3672 25.6779 65.6803 25.7456 65.9893 25.7456C66.3617 25.7456 66.6833 25.6758 66.9541 25.5361C67.2249 25.3965 67.4344 25.1891 67.5825 24.9141C67.7349 24.6432 67.811 24.3089 67.811 23.9111V18.6426L67.9189 17.1318ZM63.1899 20.6421V20.5088C63.1899 19.984 63.2513 19.508 63.374 19.0806C63.501 18.6489 63.6808 18.2786 63.9136 17.9697C64.1506 17.6608 64.4362 17.4238 64.7705 17.2588C65.1048 17.0895 65.4814 17.0049 65.9004 17.0049C66.332 17.0049 66.7087 17.0811 67.0303 17.2334C67.3561 17.3815 67.6312 17.5994 67.8555 17.8872C68.084 18.1707 68.2638 18.5135 68.395 18.9155C68.5262 19.3175 68.6172 19.7725 68.668 20.2803V20.8643C68.6214 21.3678 68.5304 21.8206 68.395 22.2227C68.2638 22.6247 68.084 22.9674 67.8555 23.251C67.6312 23.5345 67.3561 23.7524 67.0303 23.9048C66.7044 24.0529 66.3236 24.127 65.8877 24.127C65.4772 24.127 65.1048 24.0402 64.7705 23.8667C64.4404 23.6932 64.1569 23.4499 63.9199 23.1367C63.6829 22.8236 63.501 22.4554 63.374 22.0322C63.2513 21.6048 63.1899 21.1414 63.1899 20.6421ZM64.3643 20.5088V20.6421C64.3643 20.9849 64.3981 21.3065 64.4658 21.6069C64.5378 21.9074 64.6457 22.1719 64.7896 22.4004C64.9377 22.6289 65.126 22.8088 65.3545 22.9399C65.583 23.0669 65.856 23.1304 66.1733 23.1304C66.5627 23.1304 66.8843 23.0479 67.1382 22.8828C67.3921 22.7178 67.5931 22.4998 67.7412 22.229C67.8936 21.9582 68.012 21.6641 68.0967 21.3467V19.8169C68.0501 19.5841 67.9782 19.3599 67.8809 19.144C67.7878 18.924 67.665 18.7293 67.5127 18.5601C67.3646 18.3866 67.1805 18.249 66.9604 18.1475C66.7404 18.0459 66.4823 17.9951 66.186 17.9951C65.8644 17.9951 65.5872 18.0628 65.3545 18.1982C65.126 18.3294 64.9377 18.5114 64.7896 18.7441C64.6457 18.9727 64.5378 19.2393 64.4658 19.5439C64.3981 19.8444 64.3643 20.166 64.3643 20.5088ZM72.0449 14.25V24H70.8643V14.25H72.0449ZM75.2061 17.1318V24H74.0254V17.1318H75.2061ZM73.9365 15.3101C73.9365 15.1196 73.9937 14.9588 74.1079 14.8276C74.2264 14.6965 74.3999 14.6309 74.6284 14.6309C74.8527 14.6309 75.0241 14.6965 75.1426 14.8276C75.2653 14.9588 75.3267 15.1196 75.3267 15.3101C75.3267 15.492 75.2653 15.6486 75.1426 15.7798C75.0241 15.9067 74.8527 15.9702 74.6284 15.9702C74.3999 15.9702 74.2264 15.9067 74.1079 15.7798C73.9937 15.6486 73.9365 15.492 73.9365 15.3101ZM81.0903 22.1782C81.0903 22.009 81.0522 21.8524 80.9761 21.7085C80.9041 21.5604 80.7539 21.4271 80.5254 21.3086C80.3011 21.1859 79.9626 21.0801 79.5098 20.9912C79.1289 20.9108 78.784 20.8156 78.4751 20.7056C78.1704 20.5955 77.9102 20.4622 77.6943 20.3057C77.4827 20.1491 77.3198 19.965 77.2056 19.7534C77.0913 19.5418 77.0342 19.2943 77.0342 19.0107C77.0342 18.7399 77.0934 18.4839 77.2119 18.2427C77.3346 18.0015 77.506 17.7878 77.7261 17.6016C77.9504 17.4154 78.2191 17.2694 78.5322 17.1636C78.8454 17.0578 79.1945 17.0049 79.5796 17.0049C80.1297 17.0049 80.5994 17.1022 80.9888 17.2969C81.3781 17.4915 81.6764 17.7518 81.8838 18.0776C82.0911 18.3993 82.1948 18.7568 82.1948 19.1504H81.0205C81.0205 18.96 80.9634 18.7759 80.8491 18.5981C80.7391 18.4162 80.5762 18.266 80.3604 18.1475C80.1488 18.029 79.8885 17.9697 79.5796 17.9697C79.2537 17.9697 78.9893 18.0205 78.7861 18.1221C78.5872 18.2194 78.4412 18.3442 78.3481 18.4966C78.2593 18.6489 78.2148 18.8097 78.2148 18.979C78.2148 19.106 78.236 19.2202 78.2783 19.3218C78.3249 19.4191 78.4053 19.5101 78.5195 19.5947C78.6338 19.6751 78.7946 19.7513 79.002 19.8232C79.2093 19.8952 79.4738 19.9671 79.7954 20.0391C80.3582 20.166 80.8216 20.3184 81.1855 20.4961C81.5495 20.6738 81.8203 20.8918 81.998 21.1499C82.1758 21.408 82.2646 21.7212 82.2646 22.0894C82.2646 22.3898 82.2012 22.6649 82.0742 22.9146C81.9515 23.1642 81.7716 23.38 81.5347 23.562C81.3019 23.7397 81.0226 23.8794 80.6968 23.981C80.3752 24.0783 80.0133 24.127 79.6113 24.127C79.0062 24.127 78.4941 24.019 78.0752 23.8032C77.6562 23.5874 77.3389 23.3081 77.123 22.9653C76.9072 22.6226 76.7993 22.2607 76.7993 21.8799H77.98C77.9969 22.2015 78.09 22.4575 78.2593 22.6479C78.4285 22.8341 78.6359 22.9674 78.8813 23.0479C79.1268 23.124 79.3701 23.1621 79.6113 23.1621C79.9329 23.1621 80.2017 23.1198 80.4175 23.0352C80.6375 22.9505 80.8047 22.8341 80.9189 22.686C81.0332 22.5379 81.0903 22.3687 81.0903 22.1782ZM84.9814 14.25V24H83.8071V14.25H84.9814ZM84.7021 20.3057L84.2134 20.2866C84.2176 19.8169 84.2874 19.3831 84.4229 18.9854C84.5583 18.5833 84.7487 18.2342 84.9941 17.938C85.2396 17.6418 85.5316 17.4132 85.8701 17.2524C86.2129 17.0874 86.5916 17.0049 87.0063 17.0049C87.3449 17.0049 87.6496 17.0514 87.9204 17.1445C88.1912 17.2334 88.4219 17.3773 88.6123 17.5762C88.807 17.7751 88.9551 18.0332 89.0566 18.3506C89.1582 18.6637 89.209 19.0467 89.209 19.4995V24H88.0283V19.4868C88.0283 19.1271 87.9754 18.8394 87.8696 18.6235C87.7638 18.4035 87.6094 18.2448 87.4062 18.1475C87.2031 18.0459 86.9535 17.9951 86.6572 17.9951C86.3652 17.9951 86.0986 18.0565 85.8574 18.1792C85.6204 18.3019 85.4152 18.4712 85.2417 18.687C85.0724 18.9028 84.9391 19.1504 84.8418 19.4297C84.7487 19.7048 84.7021 19.9967 84.7021 20.3057Z" fill="white"/>
</svg>
