<svg width="86" height="48" viewBox="0 0 86 48" fill="none" xmlns="http://www.w3.org/2000/svg">
<g filter="url(#filter0_d_0_1214)">
<path d="M31.1621 21.9858C31.1621 21.8247 31.137 21.6815 31.0869 21.5562C31.0404 21.4308 30.9562 21.3162 30.8345 21.2124C30.7127 21.1086 30.5409 21.0083 30.3188 20.9116C30.1004 20.8114 29.8211 20.7093 29.481 20.6055C29.1086 20.4909 28.7648 20.3638 28.4497 20.2241C28.1382 20.0809 27.866 19.9162 27.6333 19.73C27.4006 19.5402 27.2197 19.3236 27.0908 19.0801C26.9619 18.833 26.8975 18.5483 26.8975 18.2261C26.8975 17.9074 26.9637 17.6174 27.0962 17.356C27.2323 17.0946 27.4238 16.869 27.6709 16.6792C27.9215 16.4858 28.217 16.3372 28.5571 16.2334C28.8973 16.126 29.2733 16.0723 29.6851 16.0723C30.2651 16.0723 30.7646 16.1797 31.1836 16.3945C31.6061 16.6094 31.9302 16.8976 32.1558 17.2593C32.3849 17.6209 32.4995 18.0202 32.4995 18.457H31.1621C31.1621 18.1992 31.1066 17.9718 30.9956 17.7749C30.8882 17.5744 30.7235 17.4168 30.5015 17.3022C30.283 17.1877 30.0055 17.1304 29.6689 17.1304C29.3503 17.1304 29.0853 17.1787 28.874 17.2754C28.6628 17.3721 28.5052 17.5028 28.4014 17.6675C28.2975 17.8322 28.2456 18.0184 28.2456 18.2261C28.2456 18.3729 28.2796 18.5072 28.3477 18.6289C28.4157 18.7471 28.5195 18.8581 28.6592 18.9619C28.7988 19.0622 28.9743 19.1571 29.1855 19.2466C29.3968 19.3361 29.6457 19.422 29.9321 19.5044C30.3654 19.6333 30.7432 19.7765 31.0654 19.9341C31.3877 20.0881 31.6562 20.2635 31.8711 20.4604C32.0859 20.6574 32.2471 20.8812 32.3545 21.1318C32.4619 21.3789 32.5156 21.66 32.5156 21.9751C32.5156 22.3045 32.4494 22.6017 32.3169 22.8667C32.1844 23.1281 31.9946 23.3519 31.7476 23.5381C31.5041 23.7207 31.2104 23.8621 30.8667 23.9624C30.5265 24.0591 30.147 24.1074 29.728 24.1074C29.3521 24.1074 28.9814 24.0573 28.6162 23.957C28.2546 23.8568 27.9251 23.7046 27.6279 23.5005C27.3307 23.2928 27.0944 23.035 26.9189 22.7271C26.7435 22.4155 26.6558 22.0521 26.6558 21.6367H28.0039C28.0039 21.891 28.0469 22.1076 28.1328 22.2866C28.2223 22.4657 28.3459 22.6125 28.5034 22.7271C28.661 22.8381 28.8436 22.9204 29.0513 22.9741C29.2625 23.0278 29.4881 23.0547 29.728 23.0547C30.0431 23.0547 30.3063 23.0099 30.5176 22.9204C30.7324 22.8309 30.8936 22.7056 31.001 22.5444C31.1084 22.3833 31.1621 22.1971 31.1621 21.9858ZM34.9648 18.1885V24H33.665V18.1885H34.9648ZM33.5791 16.6631C33.5791 16.4661 33.6436 16.3032 33.7725 16.1743C33.9049 16.0418 34.0876 15.9756 34.3203 15.9756C34.5495 15.9756 34.7303 16.0418 34.8628 16.1743C34.9953 16.3032 35.0615 16.4661 35.0615 16.6631C35.0615 16.8564 34.9953 17.0176 34.8628 17.1465C34.7303 17.2754 34.5495 17.3398 34.3203 17.3398C34.0876 17.3398 33.9049 17.2754 33.7725 17.1465C33.6436 17.0176 33.5791 16.8564 33.5791 16.6631ZM37.6665 19.4292V24H36.3721V18.1885H37.5913L37.6665 19.4292ZM37.4355 20.8794L37.0166 20.874C37.0202 20.4622 37.0775 20.0845 37.1885 19.7407C37.3031 19.397 37.4606 19.1016 37.6611 18.8545C37.8652 18.6074 38.1087 18.4176 38.3916 18.2852C38.6745 18.1491 38.9896 18.0811 39.3369 18.0811C39.6162 18.0811 39.8687 18.1204 40.0942 18.1992C40.3234 18.2744 40.5186 18.3979 40.6797 18.5698C40.8444 18.7417 40.9697 18.9655 41.0557 19.2412C41.1416 19.5133 41.1846 19.8481 41.1846 20.2456V24H39.8848V20.2402C39.8848 19.9609 39.8436 19.7407 39.7612 19.5796C39.6825 19.4149 39.5661 19.2985 39.4121 19.2305C39.2617 19.1589 39.0737 19.123 38.8481 19.123C38.6261 19.123 38.4274 19.1696 38.252 19.2627C38.0765 19.3558 37.9279 19.4829 37.8062 19.644C37.688 19.8052 37.5967 19.9914 37.5322 20.2026C37.4678 20.4139 37.4355 20.6395 37.4355 20.8794ZM46.228 18.1885H47.4043V23.8389C47.4043 24.3617 47.2933 24.8057 47.0713 25.1709C46.8493 25.5361 46.5396 25.8136 46.1421 26.0034C45.7446 26.1968 45.2845 26.2935 44.7617 26.2935C44.5397 26.2935 44.2926 26.2612 44.0205 26.1968C43.752 26.1323 43.4906 26.0285 43.2363 25.8853C42.9857 25.7456 42.7762 25.5612 42.6079 25.332L43.2148 24.5693C43.4225 24.8164 43.6517 24.9972 43.9023 25.1118C44.153 25.2264 44.4162 25.2837 44.6919 25.2837C44.9891 25.2837 45.2415 25.2282 45.4492 25.1172C45.6605 25.0098 45.8234 24.8504 45.938 24.6392C46.0526 24.4279 46.1099 24.1701 46.1099 23.8657V19.5044L46.228 18.1885ZM42.2803 21.1587V21.0459C42.2803 20.6055 42.334 20.2044 42.4414 19.8428C42.5488 19.4775 42.7028 19.1642 42.9033 18.9028C43.1038 18.6379 43.3473 18.4355 43.6338 18.2959C43.9202 18.1527 44.2443 18.0811 44.606 18.0811C44.9819 18.0811 45.3024 18.1491 45.5674 18.2852C45.8359 18.4212 46.0597 18.6164 46.2388 18.8706C46.4178 19.1213 46.5575 19.422 46.6577 19.7729C46.7616 20.1203 46.8385 20.507 46.8887 20.9331V21.293C46.8421 21.7083 46.7633 22.0879 46.6523 22.4316C46.5413 22.7754 46.3945 23.0726 46.2119 23.3232C46.0293 23.5739 45.8037 23.7673 45.5352 23.9033C45.2702 24.0394 44.9569 24.1074 44.5952 24.1074C44.2407 24.1074 43.9202 24.034 43.6338 23.8872C43.3509 23.7404 43.1074 23.5345 42.9033 23.2695C42.7028 23.0046 42.5488 22.693 42.4414 22.335C42.334 21.9733 42.2803 21.5812 42.2803 21.1587ZM43.5747 21.0459V21.1587C43.5747 21.4237 43.5998 21.6707 43.6499 21.8999C43.7036 22.1291 43.7842 22.3314 43.8916 22.5068C44.0026 22.6787 44.1423 22.8148 44.3105 22.915C44.4824 23.0117 44.6847 23.0601 44.9175 23.0601C45.2218 23.0601 45.4707 22.9956 45.6641 22.8667C45.861 22.7378 46.0114 22.5641 46.1152 22.3457C46.2227 22.1237 46.2979 21.8766 46.3408 21.6045V20.6323C46.3193 20.4211 46.2746 20.2241 46.2065 20.0415C46.1421 19.8589 46.0544 19.6995 45.9434 19.5635C45.8324 19.4238 45.6927 19.3164 45.5244 19.2412C45.3561 19.1624 45.1574 19.123 44.9282 19.123C44.6955 19.123 44.4932 19.1732 44.3213 19.2734C44.1494 19.3737 44.008 19.5116 43.897 19.687C43.7896 19.8625 43.709 20.0666 43.6553 20.2993C43.6016 20.5321 43.5747 20.7809 43.5747 21.0459ZM52.8721 18.1885V24H51.5723V18.1885H52.8721ZM51.4863 16.6631C51.4863 16.4661 51.5508 16.3032 51.6797 16.1743C51.8122 16.0418 51.9948 15.9756 52.2275 15.9756C52.4567 15.9756 52.6375 16.0418 52.77 16.1743C52.9025 16.3032 52.9688 16.4661 52.9688 16.6631C52.9688 16.8564 52.9025 17.0176 52.77 17.1465C52.6375 17.2754 52.4567 17.3398 52.2275 17.3398C51.9948 17.3398 51.8122 17.2754 51.6797 17.1465C51.5508 17.0176 51.4863 16.8564 51.4863 16.6631ZM55.5737 19.4292V24H54.2793V18.1885H55.4985L55.5737 19.4292ZM55.3428 20.8794L54.9238 20.874C54.9274 20.4622 54.9847 20.0845 55.0957 19.7407C55.2103 19.397 55.3678 19.1016 55.5684 18.8545C55.7725 18.6074 56.016 18.4176 56.2988 18.2852C56.5817 18.1491 56.8968 18.0811 57.2441 18.0811C57.5234 18.0811 57.7759 18.1204 58.0015 18.1992C58.2306 18.2744 58.4258 18.3979 58.5869 18.5698C58.7516 18.7417 58.877 18.9655 58.9629 19.2412C59.0488 19.5133 59.0918 19.8481 59.0918 20.2456V24H57.792V20.2402C57.792 19.9609 57.7508 19.7407 57.6685 19.5796C57.5897 19.4149 57.4733 19.2985 57.3193 19.2305C57.1689 19.1589 56.981 19.123 56.7554 19.123C56.5334 19.123 56.3346 19.1696 56.1592 19.2627C55.9837 19.3558 55.8351 19.4829 55.7134 19.644C55.5952 19.8052 55.5039 19.9914 55.4395 20.2026C55.375 20.4139 55.3428 20.6395 55.3428 20.8794Z" fill="#1D1D1D"/>
</g>
<g filter="url(#filter1_d_0_1214)">
<path d="M4.5 2C4.5 1.17157 5.17157 0.5 6 0.5H80C80.8284 0.5 81.5 1.17157 81.5 2V38C81.5 38.8284 80.8284 39.5 80 39.5H6C5.17157 39.5 4.5 38.8284 4.5 38V2Z" stroke="#E0E0E0" shape-rendering="crispEdges"/>
</g>
<defs>
<filter id="filter0_d_0_1214" x="22.6558" y="15.9756" width="40.436" height="18.3179" filterUnits="userSpaceOnUse" color-interpolation-filters="sRGB">
<feFlood flood-opacity="0" result="BackgroundImageFix"/>
<feColorMatrix in="SourceAlpha" type="matrix" values="0 0 0 0 0 0 0 0 0 0 0 0 0 0 0 0 0 0 127 0" result="hardAlpha"/>
<feOffset dy="4"/>
<feGaussianBlur stdDeviation="2"/>
<feComposite in2="hardAlpha" operator="out"/>
<feColorMatrix type="matrix" values="0 0 0 0 0 0 0 0 0 0 0 0 0 0 0 0 0 0 0.25 0"/>
<feBlend mode="normal" in2="BackgroundImageFix" result="effect1_dropShadow_0_1214"/>
<feBlend mode="normal" in="SourceGraphic" in2="effect1_dropShadow_0_1214" result="shape"/>
</filter>
<filter id="filter1_d_0_1214" x="0" y="0" width="86" height="48" filterUnits="userSpaceOnUse" color-interpolation-filters="sRGB">
<feFlood flood-opacity="0" result="BackgroundImageFix"/>
<feColorMatrix in="SourceAlpha" type="matrix" values="0 0 0 0 0 0 0 0 0 0 0 0 0 0 0 0 0 0 127 0" result="hardAlpha"/>
<feOffset dy="4"/>
<feGaussianBlur stdDeviation="2"/>
<feComposite in2="hardAlpha" operator="out"/>
<feColorMatrix type="matrix" values="0 0 0 0 0 0 0 0 0 0 0 0 0 0 0 0 0 0 0.25 0"/>
<feBlend mode="normal" in2="BackgroundImageFix" result="effect1_dropShadow_0_1214"/>
<feBlend mode="normal" in="SourceGraphic" in2="effect1_dropShadow_0_1214" result="shape"/>
</filter>
</defs>
</svg>
